<svg width="40" height="40" viewBox="0 0 240 240" xmlns="http://www.w3.org/2000/svg">
  <defs>
    <!-- Gradient for the main green color -->
    <linearGradient id="greenGradient" x1="0%" y1="0%" x2="100%" y2="100%">
      <stop offset="0%" style="stop-color:#5FB3A3;stop-opacity:1" />
      <stop offset="100%" style="stop-color:#4A9B8E;stop-opacity:1" />
    </linearGradient>
  </defs>
  
  <!-- Background rounded rectangle -->
  <rect x="0" y="0" width="240" height="180" rx="20" ry="20" fill="url(#greenGradient)" />
  
  <!-- Three dots at top -->
  <circle cx="30" cy="30" r="8" fill="white" opacity="0.9" />
  <circle cx="60" cy="30" r="8" fill="white" opacity="0.9" />
  <circle cx="90" cy="30" r="8" fill="white" opacity="0.9" />
  
  <!-- Screen/monitor content area -->
  <rect x="15" y="55" width="210" height="110" rx="8" ry="8" fill="white" opacity="0.15" />
  
  <!-- User icon - head -->
  <circle cx="120" cy="100" r="25" fill="url(#greenGradient)" />
  
  <!-- User icon - body/shoulders -->
  <path d="M 80 140 Q 80 120 100 115 Q 120 110 120 110 Q 120 110 140 115 Q 160 120 160 140 L 160 165 L 80 165 Z" fill="url(#greenGradient)" />
  
  <!-- Tie/necktie -->
  <path d="M 120 110 L 115 125 L 120 140 L 125 125 Z" fill="white" opacity="0.9" />
  
  <!-- Monitor stand -->
  <rect x="105" y="180" width="30" height="15" fill="url(#greenGradient)" />
  <rect x="90" y="195" width="60" height="8" rx="4" ry="4" fill="url(#greenGradient)" />
</svg> 