<?xml version="1.0" encoding="UTF-8"?><svg id="Layer_2" xmlns="http://www.w3.org/2000/svg" xmlns:xlink="http://www.w3.org/1999/xlink" viewBox="0 0 164 60.44"><defs><style>.cls-1{fill:none;}.cls-2{fill:url(#linear-gradient);}.cls-3{fill:#0072bc;}.cls-4{fill:#162b75;}.cls-5{clip-path:url(#clippath-1);}.cls-6{clip-path:url(#clippath-3);}.cls-7{clip-path:url(#clippath-2);}.cls-8{fill:url(#linear-gradient-3);}.cls-9{fill:url(#linear-gradient-4);}.cls-10{fill:url(#linear-gradient-2);}</style><linearGradient id="linear-gradient" x1="142.75" y1="5.58" x2="164" y2="5.58" gradientTransform="matrix(1, 0, 0, 1, 0, 0)" gradientUnits="userSpaceOnUse"><stop offset="0" stop-color="#162b75"/><stop offset=".63" stop-color="#21409a"/><stop offset="1" stop-color="#21409a"/></linearGradient><clipPath id="clippath-1"><path class="cls-1" d="M127.77,21.13c-2.06,11.67,6.94,21.13,22.97,21.13,2.02,0,4.01-.15,5.97-.44l1.89-10.72c-1.91,.57-3.95,.88-6.04,.88s-4.05-.32-5.76-.89c-4.65-1.55-7.59-4.98-7.34-9.05,.02-.3,.05-.61,.11-.92,.05-.31,.13-.61,.21-.91,.25-4.07-2.69-7.5-7.34-9.05-2.4,2.97-4.02,6.36-4.65,9.97"/></clipPath><linearGradient id="linear-gradient-2" x1="298.59" y1="-169.21" x2="299.16" y2="-169.21" gradientTransform="translate(17749.23 -31058.38) rotate(90) scale(104.05 -104.05)" xlink:href="#linear-gradient"/><clipPath id="clippath-2"><path class="cls-1" d="M122.54,.43l-1.89,10.7c1.9-.56,3.95-.88,6.04-.88,8.22,0,14.03,4.85,12.98,10.84-.05,.31-.13,.61-.21,.91-.25,4.06,2.69,7.49,7.33,9.04,2.4-2.96,4.01-6.35,4.65-9.95,2.05-11.65-6.93-21.1-22.93-21.1-2.01,0-4.01,.15-5.96,.43"/></clipPath><linearGradient id="linear-gradient-3" x1="293.82" y1="-170.23" x2="294.39" y2="-170.23" gradientTransform="translate(18069.64 -30957.36) rotate(90) scale(105.34 -105.34)" gradientUnits="userSpaceOnUse"><stop offset="0" stop-color="#00509a"/><stop offset=".68" stop-color="#0098d8"/><stop offset="1" stop-color="#0098d8"/></linearGradient><clipPath id="clippath-3"><path class="cls-1" d="M122.87,31.94c-2.09,0-4.02-.31-5.73-.88l-1.89,10.7c1.85,.29,3.79,.44,5.81,.44,5.71,0,10.94-1.2,15.41-3.27-3.51-1.95-6.07-4.66-7.54-7.87-1.91,.57-3.97,.89-6.07,.89"/></clipPath><linearGradient id="linear-gradient-4" x1="291.29" y1="-175.51" x2="291.86" y2="-175.51" gradientTransform="translate(9693.07 -15852.6) rotate(90) scale(54.51 -54.51)" gradientUnits="userSpaceOnUse"><stop offset="0" stop-color="#0086cc"/><stop offset=".33" stop-color="#0086cc"/><stop offset="1" stop-color="#0098d8"/></linearGradient></defs><g id="Layer_4"><g><path class="cls-4" d="M91.85,41.88h-18.57l1.54-8.71h16.6c3.64,0,6.34-1.14,7.05-5.15l.79-4.47c.59-3.33-1.44-4.7-6.29-4.7h-15.31l1.52-8.64h19.78c8.41,0,13.8,2.5,11.75,14.17l-.52,2.96c-2.31,13.11-10.67,14.55-18.33,14.55m-19.03-14.55c-2.31,13.11-10.67,14.55-18.33,14.55h-15.61l1.54-8.71h13.64c3.64,0,6.34-1.14,7.05-5.15l.75-4.24c.6-3.41-1.4-4.93-6.25-4.93h-4.24c-6.59,0-13.07-2.35-11.62-10.61l.94-5.31h11.22l-.66,3.71c-.49,2.8,2.33,3.56,5.59,3.56h4.77c8.41,0,13.81,2.5,11.75,14.17l-.52,2.96Zm-34.93,0c-2.31,13.11-10.67,14.55-18.33,14.55H3.95l1.54-8.71h13.64c3.64,0,6.34-1.14,7.05-5.15l.75-4.24c.6-3.41-1.41-4.93-6.26-4.93h-4.24c-6.59,0-13.08-2.35-11.62-10.61l.94-5.31h11.22l-.65,3.71c-.49,2.8,2.33,3.56,5.59,3.56h4.77c8.41,0,13.81,2.5,11.75,14.17l-.52,2.96Z"/><path class="cls-3" d="M141.45,60.44l.59-3.34h7.85l.58-3.31c.3-1.69-.6-2.18-2.61-2.18h-4.86l.58-3.31h7.41c2.24,0,4.69,.76,4.02,4.59l-.74,4.22h1.54l-.59,3.34h-13.78Zm-5.18-5.09l1.25-7.07h4.39l-1.25,7.07h-4.39Zm-6.89,5.09h-6.08c-2.24,0-4.69-.79-4.01-4.62l1.33-7.53h4.39l-.92,5.2-.09,.49-.21,1.19c-.28,1.57,.21,1.92,3.03,1.92h.58c2.01,0,3.08-.49,3.37-2.15l.21-1.16c.3-1.69-.6-2.18-2.61-2.18h-1.83l.58-3.31h4.39c2.24,0,4.69,.76,4.02,4.59l-.52,2.94c-.68,3.84-3.4,4.62-5.64,4.62m-16.6,0l2.14-12.15h4.39l-2.14,12.15h-4.39Zm-5.9,0l1.22-6.92c.27-1.54-.21-1.92-3.06-1.92h-.32c-2.82,0-3.44,.38-3.71,1.92l-1.22,6.92h-4.39l1.33-7.56c.68-3.84,3.4-4.59,5.64-4.59h6.22c2.24,0,4.69,.76,4.02,4.59l-1.33,7.56h-4.39Zm-22.85,0l2.14-12.15h4.39l-2.14,12.15h-4.39Zm-7.07,0h-8.75l.59-3.34h7.04c1.83,0,2.82-.49,3.05-1.8l.3-1.69c.27-1.54-.63-2.01-2.03-2.01h-1.42c-1.25,0-2.44,.29-2.63,1.37l-.44,2.5h-4.3l.55-3.11c.56-3.17,3.36-4.07,5.89-4.07h3.72c2.94,0,5.92,.55,5.03,5.58l-.2,1.13c-.79,4.48-3.17,5.44-6.4,5.44m-15.24-5.09l1.25-7.07h4.39l-1.25,7.07h-4.39Zm-10.99,5.09l.59-3.34h4.65l.58-3.31c.3-1.69-.6-2.18-2.64-2.18h-.7l.59-3.34h3.29c2.27,0,4.75,.79,4.06,4.68l-.73,4.16-.59,3.34h-9.1Zm-10.53,0l.59-3.34h4.65l.58-3.31c.3-1.69-.6-2.18-2.64-2.18h-.7l.59-3.34h3.29c2.27,0,4.75,.79,4.06,4.68l-.73,4.16-.59,3.34h-9.1Zm-4.11-6.89c.28-1.57-.21-1.95-3.09-1.95h-.26c-2.85,0-3.47,.38-3.75,1.95l-.29,1.63c-.28,1.57,.21,1.92,3.06,1.92h.26c2.88,0,3.49-.35,3.77-1.92l.29-1.63Zm4.06,2.21c-.69,3.9-3.44,4.68-5.71,4.68h-6.22c-2.27,0-4.75-.79-4.06-4.68l.5-2.82c.68-3.87,3.44-4.65,5.7-4.65h6.22c2.27,0,4.75,.79,4.06,4.65l-.5,2.82Zm-22.02-.41l1.24-7.07h4.39l-1.25,7.07h-4.39Zm-5.58-1.8c.28-1.57-.15-1.95-2.39-1.95h-1.42c-2.24,0-2.8,.38-3.08,1.95l-.63,3.55h6.89l.63-3.55ZM0,60.44l1.32-7.5c.68-3.87,3.44-4.65,5.7-4.65h6.02c2.27,0,4.75,.79,4.06,4.65l-1.32,7.5H0Z"/><path class="cls-2" d="M142.75,3.28c3.51,1.95,6.08,4.67,7.55,7.88,1.92-.57,3.97-.89,6.08-.89s4.03,.31,5.74,.88l1.89-10.72c-1.85-.29-3.79-.44-5.81-.44-5.71,0-10.96,1.2-15.43,3.28"/><g class="cls-5"><rect class="cls-10" x="125.71" y="11.16" width="32.88" height="31.09"/></g><g class="cls-7"><rect class="cls-8" x="114.48" y="-7.06" width="45.17" height="45.17" transform="translate(29.17 101.47) rotate(-45)"/></g><g class="cls-6"><rect class="cls-9" x="114.94" y="24.83" width="21.85" height="23.58" transform="translate(19.52 113.26) rotate(-52)"/></g></g></g></svg>